{
  "accessors": [
    {
      "bufferView": 2,
      "componentType": 5126,
      "count": 65532,
      "max": [
        0.54416400194168091,
        6.6068267822265625,
        0.5581200122833252
      ],
      "min": [
        -0.78295397758483887,
        5.3306188583374023,
        -0.77595001459121704
      ],
      "type": "VEC3"
    },
    {
      "bufferView": 2,
      "byteOffset": 786384,
      "componentType": 5126,
      "count": 65532,
      "max": [
        0.9999997615814209,
        0.99914133548736572,
        0.99427300691604614
      ],
      "min": [
        -0.99993723630905151,
        -0.999988853931427,
        -0.98213225603103638
      ],
      "type": "VEC3"
    },
    {
      "bufferView": 1,
      "componentType": 5126,
      "count": 65532,
      "max": [
        0.90153700113296509,
        0.95532101392745972
      ],
      "min": [
        0.0039059999398887157,
        0.0032569998875260353
      ],
      "type": "VEC2"
    },
    {
      "bufferView": 0,
      "componentType": 5125,
      "count": 361281,
      "max": [
        65531
      ],
      "min": [
        0
      ],
      "type": "SCALAR"
    },
    {
      "bufferView": 2,
      "byteOffset": 1572768,
      "componentType": 5126,
      "count": 65532,
      "max": [
        0.47343599796295166,
        6.6462368965148926,
        0.59858298301696777
      ],
      "min": [
        -0.71513700485229492,
        5.3667998313903809,
        -0.53469997644424438
      ],
      "type": "VEC3"
    },
    {
      "bufferView": 2,
      "byteOffset": 2359152,
      "componentType": 5126,
      "count": 65532,
      "max": [
        0.99994075298309326,
        0.99998933076858521,
        0.97891485691070557
      ],
      "min": [
        -0.99997800588607788,
        -0.99999910593032837,
        -0.72654604911804199
      ],
      "type": "VEC3"
    },
    {
      "bufferView": 1,
      "byteOffset": 524256,
      "componentType": 5126,
      "count": 65532,
      "max": [
        0.95265799760818481,
        0.99747097492218018
      ],
      "min": [
        0.020895000547170639,
        0.01384699996560812
      ],
      "type": "VEC2"
    },
    {
      "bufferView": 0,
      "byteOffset": 1445124,
      "componentType": 5125,
      "count": 329208,
      "max": [
        65531
      ],
      "min": [
        0
      ],
      "type": "SCALAR"
    },
    {
      "bufferView": 2,
      "byteOffset": 3145536,
      "componentType": 5126,
      "count": 51925,
      "max": [
        0.41425201296806335,
        6.4439458847045898,
        1.0331059694290161
      ],
      "min": [
        -0.60079300403594971,
        5.409027099609375,
        0.049768000841140747
      ],
      "type": "VEC3"
    },
    {
      "bufferView": 2,
      "byteOffset": 3768636,
      "componentType": 5126,
      "count": 51925,
      "max": [
        0.99995356798171997,
        0.99990373849868774,
        0.99985933303833008
      ],
      "min": [
        -0.9997902512550354,
        -0.99995988607406616,
        -0.99989789724349976
      ],
      "type": "VEC3"
    },
    {
      "bufferView": 1,
      "byteOffset": 1048512,
      "componentType": 5126,
      "count": 51925,
      "max": [
        0.98788398504257202,
        0.99654299020767212
      ],
      "min": [
        0.0045579997822642326,
        0.0034030000679194927
      ],
      "type": "VEC2"
    },
    {
      "bufferView": 0,
      "byteOffset": 2761956,
      "componentType": 5125,
      "count": 260079,
      "max": [
        51924
      ],
      "min": [
        0
      ],
      "type": "SCALAR"
    }
  ],
  "asset": {
    "extras": {
      "author": "Limerick3D (https://sketchfab.com/Limerick3D)",
      "license": "CC0-1.0 (http://creativecommons.org/publicdomain/zero/1.0/)",
      "source": "https://sketchfab.com/3d-models/hunt-museum-bronze-bell-hca-623-6ac94462b21549ea8047228391f1239b",
      "title": "Hunt Museum - Bronze Bell - HCA 623"
    },
    "generator": "Sketchfab-7.80.0",
    "version": "2.0"
  },
  "bufferViews": [
    {
      "buffer": 0,
      "byteLength": 3802272,
      "byteOffset": 0,
      "name": "floatBufferViews",
      "target": 34963
    },
    {
      "buffer": 0,
      "byteLength": 1463912,
      "byteOffset": 3802272,
      "byteStride": 8,
      "name": "floatBufferViews",
      "target": 34962
    },
    {
      "buffer": 0,
      "byteLength": 4391736,
      "byteOffset": 5266184,
      "byteStride": 12,
      "name": "floatBufferViews",
      "target": 34962
    }
  ],
  "buffers": [
    {
      "byteLength": 9657920,
      "uri": "scene.bin"
    }
  ],
  "images": [
    {
      "uri": "textures/HCA_623_baseColor.jpeg"
    }
  ],
  "materials": [
    {
      "doubleSided": true,
      "name": "HCA_623",
      "pbrMetallicRoughness": {
        "baseColorFactor": [
          1,
          1,
          1,
          1
        ],
        "baseColorTexture": {
          "index": 0,
          "texCoord": 0
        },
        "metallicFactor": 0,
        "roughnessFactor": 0.59999999999999998
      }
    }
  ],
  "meshes": [
    {
      "primitives": [
        {
          "attributes": {
            "NORMAL": 1,
            "POSITION": 0,
            "TEXCOORD_0": 2
          },
          "indices": 3,
          "material": 0,
          "mode": 4
        }
      ]
    },
    {
      "primitives": [
        {
          "attributes": {
            "NORMAL": 5,
            "POSITION": 4,
            "TEXCOORD_0": 6
          },
          "indices": 7,
          "material": 0,
          "mode": 4
        }
      ]
    },
    {
      "primitives": [
        {
          "attributes": {
            "NORMAL": 9,
            "POSITION": 8,
            "TEXCOORD_0": 10
          },
          "indices": 11,
          "material": 0,
          "mode": 4
        }
      ]
    }
  ],
  "nodes": [
    {
      "children": [
        1
      ],
      "name": "RootNode (gltf orientation matrix)",
      "rotation": [
        -0.70710678118654746,
        -0,
        -0,
        0.70710678118654757
      ]
    },
    {
      "children": [
        2
      ],
      "matrix": [
        0.99806094169616699,
        -0.0023453757166862488,
        0.062200378626585007,
        0,
        0.011011919938027859,
        0.9901806116104126,
        -0.13935962319374084,
        0,
        -0.061262756586074829,
        0.13977435231208801,
        0.98828637599945068,
        0,
        -0.05829862505197525,
        0.040550939738750458,
        0.84347772598266602,
        1
      ],
      "name": "RootNode (model correction matrix)"
    },
    {
      "children": [
        3,
        4,
        5
      ],
      "name": "HCA 623.obj.cleaner.materialmerger.gles"
    },
    {
      "mesh": 0,
      "name": ""
    },
    {
      "mesh": 1,
      "name": ""
    },
    {
      "mesh": 2,
      "name": ""
    }
  ],
  "samplers": [
    {
      "magFilter": 9729,
      "minFilter": 9987,
      "wrapS": 10497,
      "wrapT": 10497
    }
  ],
  "scene": 0,
  "scenes": [
    {
      "name": "OSG_Scene",
      "nodes": [
        0
      ]
    }
  ],
  "textures": [
    {
      "sampler": 0,
      "source": 0
    }
  ]
}

