{
  "accessors": [
    {
      "bufferView": 2,
      "componentType": 5126,
      "count": 65532,
      "max": [
        3.1954998970031738,
        0.97210001945495605,
        1.5642999410629272
      ],
      "min": [
        -3.078200101852417,
        -0.85619997978210449,
        0.16760000586509705
      ],
      "type": "VEC3"
    },
    {
      "bufferView": 2,
      "byteOffset": 786384,
      "componentType": 5126,
      "count": 65532,
      "max": [
        0.99999868869781494,
        0.9999995231628418,
        0.99999082088470459
      ],
      "min": [
        -0.99998617172241211,
        -0.99998855590820312,
        -0.99998223781585693
      ],
      "type": "VEC3"
    },
    {
      "bufferView": 3,
      "componentType": 5126,
      "count": 65532,
      "max": [
        0.99998939037322998,
        0.99999189376831055,
        0.99996328353881836,
        1
      ],
      "min": [
        -0.99973148107528687,
        -0.99999856948852539,
        -0.99990838766098022,
        -1
      ],
      "type": "VEC4"
    },
    {
      "bufferView": 1,
      "componentType": 5126,
      "count": 65532,
      "max": [
        0.9990200400352478,
        0.97551542520523071
      ],
      "min": [
        0.00098045892082154751,
        0.0010097569320350885
      ],
      "type": "VEC2"
    },
    {
      "bufferView": 1,
      "byteOffset": 524256,
      "componentType": 5126,
      "count": 65532,
      "max": [
        0.9990200400352478,
        0.97551542520523071
      ],
      "min": [
        0.00098045892082154751,
        0.0010097569320350885
      ],
      "type": "VEC2"
    },
    {
      "bufferView": 0,
      "componentType": 5125,
      "count": 90198,
      "max": [
        65531
      ],
      "min": [
        0
      ],
      "type": "SCALAR"
    },
    {
      "bufferView": 2,
      "byteOffset": 1572768,
      "componentType": 5126,
      "count": 52179,
      "max": [
        3.1935000419616699,
        0.97210001945495605,
        1.5642999410629272
      ],
      "min": [
        -3.078200101852417,
        -0.85729998350143433,
        0.16889999806880951
      ],
      "type": "VEC3"
    },
    {
      "bufferView": 2,
      "byteOffset": 2198916,
      "componentType": 5126,
      "count": 52179,
      "max": [
        0.99999380111694336,
        0.99999845027923584,
        0.99999892711639404
      ],
      "min": [
        -0.99999737739562988,
        -0.99999845027923584,
        -0.99998044967651367
      ],
      "type": "VEC3"
    },
    {
      "bufferView": 3,
      "byteOffset": 1048512,
      "componentType": 5126,
      "count": 52179,
      "max": [
        0.99994391202926636,
        0.99999988079071045,
        0.99991661310195923,
        1
      ],
      "min": [
        -0.99997091293334961,
        -0.99998372793197632,
        -0.99991875886917114,
        -1
      ],
      "type": "VEC4"
    },
    {
      "bufferView": 1,
      "byteOffset": 1048512,
      "componentType": 5126,
      "count": 52179,
      "max": [
        0.9989999532699585,
        0.97306990623474121
      ],
      "min": [
        0.00098057789728045464,
        0.0010480673518031836
      ],
      "type": "VEC2"
    },
    {
      "bufferView": 1,
      "byteOffset": 1465944,
      "componentType": 5126,
      "count": 52179,
      "max": [
        0.9989999532699585,
        0.97306990623474121
      ],
      "min": [
        0.00098057789728045464,
        0.0010480673518031836
      ],
      "type": "VEC2"
    },
    {
      "bufferView": 0,
      "byteOffset": 360792,
      "componentType": 5125,
      "count": 59790,
      "max": [
        52178
      ],
      "min": [
        0
      ],
      "type": "SCALAR"
    }
  ],
  "asset": {
    "extras": {
      "author": "Scottish Maritime Museum (https://sketchfab.com/ScottishMaritimeMuseum)",
      "license": "CC0-1.0 (http://creativecommons.org/publicdomain/zero/1.0/)",
      "source": "https://sketchfab.com/3d-models/venus-a-shetland-fourareen-ce4d6915e1d041459e08f2d8da521e86",
      "title": "\"Venus\", a Shetland fourareen"
    },
    "generator": "Sketchfab-7.80.0",
    "version": "2.0"
  },
  "bufferViews": [
    {
      "buffer": 0,
      "byteLength": 599952,
      "byteOffset": 0,
      "name": "floatBufferViews",
      "target": 34963
    },
    {
      "buffer": 0,
      "byteLength": 1883376,
      "byteOffset": 599952,
      "byteStride": 8,
      "name": "floatBufferViews",
      "target": 34962
    },
    {
      "buffer": 0,
      "byteLength": 2825064,
      "byteOffset": 2483328,
      "byteStride": 12,
      "name": "floatBufferViews",
      "target": 34962
    },
    {
      "buffer": 0,
      "byteLength": 1883376,
      "byteOffset": 5308392,
      "byteStride": 16,
      "name": "floatBufferViews",
      "target": 34962
    }
  ],
  "buffers": [
    {
      "byteLength": 7191768,
      "uri": "scene.bin"
    }
  ],
  "images": [
    {
      "uri": "textures/Material_25_baseColor.png"
    },
    {
      "uri": "textures/Material_25_normal.png"
    }
  ],
  "materials": [
    {
      "doubleSided": true,
      "name": "Material_25",
      "normalTexture": {
        "index": 1,
        "scale": 1,
        "texCoord": 1
      },
      "pbrMetallicRoughness": {
        "baseColorFactor": [
          1,
          1,
          1,
          1
        ],
        "baseColorTexture": {
          "index": 0,
          "texCoord": 0
        },
        "metallicFactor": 0.038068181800000003,
        "roughnessFactor": 1
      }
    }
  ],
  "meshes": [
    {
      "name": "Venus50K_8KTx_Material #25_0",
      "primitives": [
        {
          "attributes": {
            "NORMAL": 1,
            "POSITION": 0,
            "TANGENT": 2,
            "TEXCOORD_0": 3,
            "TEXCOORD_1": 4
          },
          "indices": 5,
          "material": 0,
          "mode": 4
        }
      ]
    },
    {
      "name": "Venus50K_8KTx_Material #25_0",
      "primitives": [
        {
          "attributes": {
            "NORMAL": 7,
            "POSITION": 6,
            "TANGENT": 8,
            "TEXCOORD_0": 9,
            "TEXCOORD_1": 10
          },
          "indices": 11,
          "material": 0,
          "mode": 4
        }
      ]
    }
  ],
  "nodes": [
    {
      "children": [
        1
      ],
      "name": "RootNode (gltf orientation matrix)",
      "rotation": [
        -0.70710678118654746,
        -0,
        -0,
        0.70710678118654757
      ]
    },
    {
      "children": [
        2
      ],
      "name": "RootNode (model correction matrix)"
    },
    {
      "children": [
        3
      ],
      "matrix": [
        1,
        0,
        0,
        0,
        0,
        0,
        1,
        0,
        0,
        -1,
        0,
        0,
        0,
        0,
        0,
        1
      ],
      "name": "bd048075be8b48288c6fe8dcc095162b.fbx"
    },
    {
      "children": [
        4
      ],
      "name": "RootNode"
    },
    {
      "children": [
        5,
        6
      ],
      "matrix": [
        1,
        0,
        0,
        0,
        0,
        2.2204460492503131e-16,
        -1,
        0,
        0,
        1,
        2.2204460492503131e-16,
        0,
        0,
        0,
        0,
        1
      ],
      "name": "Venus50K_8KTx"
    },
    {
      "mesh": 0,
      "name": "Venus50K_8KTx_Material #25_0"
    },
    {
      "mesh": 1,
      "name": "Venus50K_8KTx_Material #25_0"
    }
  ],
  "samplers": [
    {
      "magFilter": 9729,
      "minFilter": 9987,
      "wrapS": 10497,
      "wrapT": 10497
    }
  ],
  "scene": 0,
  "scenes": [
    {
      "name": "OSG_Scene",
      "nodes": [
        0
      ]
    }
  ],
  "textures": [
    {
      "sampler": 0,
      "source": 0
    },
    {
      "sampler": 0,
      "source": 1
    }
  ]
}

